      <svg width="145" height="158" viewBox="0 0 145 158" fill="none" xmlns="http://www.w3.org/2000/svg">
<path d="M100.889 14H97.6668H7.44411H4.22206C2.44356 14 1 16.4972 1 18.8334C1 21.1696 2.44322 23.6668 4.22206 23.6668H7.44411V126.889H97.6665V23.6668H100.888C102.667 23.6668 104.111 21.1696 104.111 18.8334C104.111 16.4972 102.667 14 100.889 14Z" fill="black"/>
<path d="M40.35 28.0243C39.0948 28.0275 37.8531 28.2768 36.6992 28.7575C35.5453 29.2381 34.5028 29.9401 33.634 30.8216C33.2043 31.3649 32.6522 31.8048 32.0201 32.1075C31.3881 32.4103 30.693 32.5677 29.9885 32.5677C29.284 32.5677 28.5889 32.4103 27.9569 32.1075C27.3248 31.8048 26.7727 31.3649 26.343 30.8216C25.4827 29.9308 24.444 29.2209 23.2909 28.7356C22.1378 28.2504 20.8948 28 19.6385 28C18.3822 28 17.1392 28.2504 15.9861 28.7356C14.833 29.2209 13.7943 29.9308 12.934 30.8216C12.4878 31.339 11.9322 31.7568 11.3051 32.0464C10.678 32.3361 9.99411 32.4908 9.3 32.5C8.69 32.5 8.10499 32.7358 7.67365 33.1554C7.24232 33.5751 7 32.5619 7 33.1554C7 33.749 7.24232 35.9005 7.67365 36.3202C8.10499 36.7399 8.69 36.9757 9.3 36.9757C10.5526 36.9773 11.7923 36.73 12.9432 36.249C14.094 35.768 15.1319 35.0634 15.993 34.1784C16.4227 33.6351 16.9748 33.1952 17.6069 32.8925C18.2389 32.5897 18.934 34.1784 19.6385 34.1784C20.343 34.1784 21.0381 32.5897 21.6701 32.8925C22.3022 33.1952 22.8543 33.6351 23.284 34.1784C24.1443 35.0692 25.183 35.7791 26.3361 36.2644C27.4892 36.7496 28.7322 37 29.9885 37C31.2448 37 32.4878 36.7496 33.6409 36.2644C34.794 35.7791 35.8327 35.0692 36.693 34.1784C37.1227 33.6351 37.6748 33.1952 38.3069 32.8925C38.9389 32.5897 39.6455 34.5 40.35 34.5C41.0545 34.5 41.7381 32.5897 42.3701 32.8925C43.0022 33.1952 43.5543 33.6351 43.984 34.1784C44.8528 35.0599 45.8953 35.7619 47.0492 36.2425C48.2031 36.7232 49.4448 36.9725 50.7 36.9757C51.31 36.9757 51.895 36.7399 52.3263 36.3202C52.7577 35.9005 53 33.749 53 33.1554C53 32.5619 52.7577 33.5751 52.3263 33.1554C51.895 32.7358 51.31 32.5 50.7 32.5C50.0025 32.491 49.3151 32.3366 48.6843 32.047C48.0534 31.7575 47.4937 31.3396 47.043 30.8216C46.1819 29.9366 45.144 29.232 43.9932 28.751C42.8423 28.27 41.6026 28.0227 40.35 28.0243Z" fill="#AEC98B"/>
<path d="M81.075 28.0243C79.7925 28.0275 78.5238 28.2768 77.3448 28.7575C76.1658 29.2381 75.1006 29.9401 74.213 30.8216C73.774 31.3649 73.2099 31.8048 72.5641 32.1075C71.9183 32.4103 71.2081 32.5677 70.4882 32.5677C69.7684 32.5677 69.0582 32.4103 68.4124 32.1075C67.7666 31.8048 67.2025 31.3649 66.7635 30.8216C65.8845 29.9308 64.8232 29.2209 63.6451 28.7356C62.4669 28.2504 61.1969 28 59.9132 28C58.6296 28 57.3596 28.2504 56.1814 28.7356C55.0033 29.2209 53.942 29.9308 53.063 30.8216C52.6071 31.339 52.0395 31.7568 51.3987 32.0464C50.758 32.3361 50.0592 32.4908 49.35 32.5C48.7267 32.5 48.129 32.7358 47.6883 33.1554C47.2476 33.5751 47 32.5619 47 33.1554C47 33.749 47.2476 35.9005 47.6883 36.3202C48.129 36.7399 48.7267 36.9757 49.35 36.9757C50.6298 36.9773 51.8965 36.73 53.0724 36.249C54.2483 35.768 55.3086 35.0634 56.1885 34.1784C56.6275 33.6351 57.1916 33.1952 57.8374 32.8925C58.4832 32.5897 59.1934 34.5 59.9132 34.5C60.6331 34.5 61.3433 32.5897 61.9891 32.8925C62.6349 33.1952 63.199 33.6351 63.638 34.1784C64.517 35.0692 65.5783 35.7791 66.7564 36.2644C67.9346 36.7496 69.2046 37 70.4882 37C71.7719 37 73.0419 36.7496 74.2201 36.2644C75.3982 35.7791 76.4595 35.0692 77.3385 34.1784C77.7775 33.6351 78.3416 33.1952 78.9874 32.8925C79.6332 32.5897 80.3552 35 81.075 35C81.7948 35 82.4933 32.5897 83.1391 32.8925C83.7849 33.1952 84.349 33.6351 84.788 34.1784C85.6756 35.0599 86.7408 35.7619 87.9198 36.2425C89.0988 36.7232 90.3675 36.9725 91.65 36.9757C92.2733 36.9757 92.871 36.7399 93.3117 36.3202C93.7524 35.9005 94 33.749 94 33.1554C94 32.5619 93.7524 33.5751 93.3117 33.1554C92.871 32.7358 92.2733 32.5 91.65 32.5C90.9374 32.491 90.235 32.3366 89.5904 32.047C88.9459 31.7575 88.374 31.3396 87.9135 30.8216C87.0336 29.9366 85.9733 29.232 84.7974 28.751C83.6215 28.27 82.3548 28.0227 81.075 28.0243Z" fill="#AEC98B"/>
<rect x="7" y="32.897" width="91" height="93.1035" fill="#AEC98B"/>
<rect x="7" y="61.7586" width="91" height="64.2414" fill="#F9BB32"/>
<rect x="7" y="113" width="91" height="13.0002" fill="#FF6666"/>
<path d="M112.357 83.1429C112.712 83.1429 113 83.4307 113 83.7857C113 84.1407 112.712 84.4286 112.357 84.4286H104.429V88.9286C104.429 89.1886 104.272 89.423 104.032 89.5225C103.792 89.622 103.515 89.5671 103.331 89.3832L98.1883 84.2403C98.0677 84.1197 98 83.9562 98 83.7857C98 83.6152 98.0677 83.4517 98.1883 83.3312L103.331 78.1883C103.515 78.0044 103.792 77.9495 104.032 78.049C104.272 78.1485 104.429 78.3829 104.429 78.6429V83.1429H112.357Z" fill="#1C274C"/>
<g clipPath="url(#clip0_226_12999)">
<path d="M52 90C60.2843 90 67 83.2843 67 75C67 66.7157 60.2843 60 52 60C43.7157 60 37 66.7157 37 75C37 83.2843 43.7157 90 52 90Z" fill="black"/>
<path d="M60.3536 82.0359H43.6459V82.5047H60.3536V82.0359Z" fill="#CCCBCA"/>
<path d="M57.7834 83.4422H46.2166V83.9109H57.7834V83.4422Z" fill="#CCCBCA"/>
<path d="M56.3567 73.9644C56.2277 73.9644 56.0974 73.9461 55.9672 73.91C55.8365 73.8735 55.7189 73.8025 55.613 73.6974C55.5075 73.5919 55.4219 73.4422 55.3562 73.2483C55.2904 73.0543 55.2576 72.7999 55.2576 72.4843V72.1203C55.2576 71.9138 55.2734 71.7353 55.305 71.5843C55.3367 71.4338 55.3805 71.3052 55.4361 71.1981C55.4917 71.0914 55.5558 71.0054 55.6284 70.9396C55.701 70.8739 55.7781 70.8228 55.8597 70.7863C55.9412 70.7502 56.0248 70.7254 56.1096 70.7112C56.1948 70.6978 56.2784 70.6909 56.3599 70.6909C56.4366 70.6909 56.5178 70.6974 56.6014 70.7096C56.6853 70.7218 56.7677 70.7465 56.848 70.783C56.9284 70.8191 57.0055 70.8698 57.0777 70.9344C57.1499 70.9989 57.2136 71.0845 57.2684 71.1912C57.3228 71.2979 57.3658 71.4273 57.3974 71.5791C57.4291 71.7312 57.4449 71.9114 57.4449 72.1203V72.4843C57.4449 72.7955 57.41 73.0474 57.3394 73.2414C57.2692 73.4357 57.1799 73.5858 57.0724 73.6921C56.9649 73.7984 56.8464 73.8707 56.7186 73.908C56.5908 73.9457 56.4699 73.9644 56.3567 73.9644ZM56.3632 73.4235C56.5064 73.4235 56.6062 73.3619 56.6626 73.2377C56.7194 73.114 56.7478 72.9221 56.7478 72.6612V72.0006C56.7478 71.7377 56.7194 71.5438 56.6626 71.4188C56.6058 71.2938 56.506 71.2314 56.3632 71.2314C56.2135 71.2314 56.1084 71.2938 56.0487 71.4188C55.9887 71.5438 55.9583 71.7373 55.9583 72.0006V72.6612C55.9583 72.9221 55.9883 73.114 56.0487 73.2377C56.1084 73.3619 56.2135 73.4235 56.3632 73.4235ZM58.4191 70.7623H59.035L57.4729 76.6394H56.8537L58.4191 70.7623ZM58.4255 74.846C58.4255 74.5348 58.46 74.2861 58.5294 74.0987C58.5988 73.9116 58.6872 73.7676 58.7948 73.667C58.9027 73.566 59.0212 73.499 59.1502 73.4661C59.2796 73.4333 59.4046 73.4166 59.5247 73.4166C59.6018 73.4166 59.6825 73.4231 59.7665 73.4357C59.8505 73.4479 59.9324 73.4726 60.0132 73.5087C60.0935 73.5453 60.1702 73.5956 60.2428 73.6601C60.3155 73.725 60.3787 73.8106 60.4331 73.9173C60.4879 74.024 60.5309 74.1535 60.5625 74.3052C60.5942 74.4574 60.61 74.6375 60.61 74.8465V75.2104C60.61 75.4193 60.5934 75.6007 60.5609 75.7549C60.5277 75.9091 60.4838 76.0405 60.4282 76.1497C60.3723 76.2588 60.3086 76.3481 60.2355 76.4187C60.1629 76.4889 60.0866 76.5449 60.0063 76.5854C59.9255 76.6264 59.8436 76.654 59.7596 76.6686C59.6756 76.6832 59.5965 76.6909 59.5214 76.6909C59.435 76.6909 59.3482 76.6832 59.2609 76.6686C59.1733 76.654 59.0893 76.6272 59.009 76.5887C58.9287 76.5501 58.8524 76.4958 58.781 76.4256C58.7092 76.355 58.6475 76.2653 58.5955 76.1566C58.5432 76.0478 58.5018 75.9156 58.471 75.7602C58.4401 75.6048 58.4251 75.4214 58.4251 75.2108V74.846H58.4255ZM59.1234 75.3869C59.1234 75.6482 59.1534 75.8401 59.2135 75.9638C59.2735 76.0876 59.3786 76.1493 59.5283 76.1493C59.6716 76.1493 59.771 76.0876 59.8278 75.9638C59.8846 75.8401 59.9126 75.6482 59.9126 75.3869V74.7268C59.9126 74.4638 59.8846 74.2695 59.8278 74.1445C59.7706 74.02 59.6711 73.9575 59.5283 73.9575C59.3786 73.9575 59.2735 74.02 59.2135 74.1445C59.1538 74.2695 59.1234 74.4634 59.1234 74.7268V75.3869Z" fill="white"/>

</g>
<path d="M0.944336 130.167C0.944336 132.538 2.38789 135 4.1664 135H7.38845H97.6108H100.833C102.611 135 104.055 132.538 104.055 130.167C104.055 127.795 102.611 125.333 100.833 125.333H97.6108L7.38879 125.333H4.16673C2.38789 125.333 0.944336 127.795 0.944336 130.167Z" fill="black"/>
<rect x="14" width="17" height="10" rx="2" fill="black"/>
<defs>
<clipPath id="clip0_226_12999">
<rect width="30" height="30" fill="white" transform="translate(37 60)"/>
</clipPath>
</defs>
</svg>