<svg width="106" height="106" viewBox="0 0 106 106" fill="none" xmlns="http://www.w3.org/2000/svg">
<circle cx="53" cy="53" r="53" fill="#EF3826" fill-opacity="0.5"/>
<circle cx="53" cy="52.9999" r="32.3171" fill="#EF3826"/>
<path d="M65.131 57.0236C66.1882 55.0393 66.7391 52.8247 66.7347 50.5763C66.7347 42.9907 60.5856 36.8416 53 36.8416C45.4143 36.8416 39.2652 42.9907 39.2652 50.5763C39.2595 53.8163 40.4048 56.9531 42.4969 59.4271L42.5131 59.4473L42.5276 59.4635H42.4969L50.6473 68.1164C50.9494 68.4371 51.3139 68.6927 51.7185 68.8673C52.123 69.042 52.5589 69.1321 52.9996 69.1321C53.4402 69.1321 53.8761 69.042 54.2807 68.8673C54.6852 68.6927 55.0497 68.4371 55.3518 68.1164L63.503 59.4635H63.4723L63.4852 59.4482L63.4868 59.4465C63.545 59.3771 63.6029 59.307 63.6606 59.2365C64.2211 58.5478 64.7135 57.8073 65.131 57.0236ZM53.004 55.827C51.7183 55.827 50.4853 55.3163 49.5763 54.4072C48.6672 53.4981 48.1564 52.2651 48.1564 50.9795C48.1564 49.6938 48.6672 48.4608 49.5763 47.5517C50.4853 46.6426 51.7183 46.1319 53.004 46.1319C54.2896 46.1319 55.5226 46.6426 56.4317 47.5517C57.3408 48.4608 57.8516 49.6938 57.8516 50.9795C57.8516 52.2651 57.3408 53.4981 56.4317 54.4072C55.5226 55.3163 54.2896 55.827 53.004 55.827Z" fill="#FAFAFA"/>
</svg>
