<svg width="24" height="25" viewBox="0 0 24 25" fill="none" xmlns="http://www.w3.org/2000/svg">
<path fill-rule="evenodd" clip-rule="evenodd" d="M12 2.84106C14.3869 2.84106 16.6761 3.78928 18.364 5.4771C20.0518 7.16493 21 9.45412 21 11.8411C21 14.9151 19.324 17.4311 17.558 19.2361C16.6757 20.1281 15.7129 20.9369 14.682 21.6521L14.256 21.9421L14.056 22.0751L13.679 22.3151L13.343 22.5201L12.927 22.7621C12.6446 22.9232 12.3251 23.008 12 23.008C11.6749 23.008 11.3554 22.9232 11.073 22.7621L10.657 22.5201L10.137 22.2001L9.945 22.0751L9.535 21.8021C8.42283 21.0496 7.3869 20.1902 6.442 19.2361C4.676 17.4301 3 14.9151 3 11.8411C3 9.45412 3.94821 7.16493 5.63604 5.4771C7.32387 3.78928 9.61305 2.84106 12 2.84106ZM12 4.84106C10.1435 4.84106 8.36301 5.57856 7.05025 6.89132C5.7375 8.20407 5 9.98455 5 11.8411C5 14.1631 6.272 16.2011 7.871 17.8371C8.55853 18.5331 9.30166 19.1718 10.093 19.7471L10.551 20.0731C10.699 20.1764 10.8413 20.2724 10.978 20.3611L11.368 20.6111L11.711 20.8201L12 20.9891L12.455 20.7201L12.822 20.4901C13.0173 20.3661 13.2263 20.2271 13.449 20.0731L13.907 19.7471C14.6983 19.1718 15.4415 18.5331 16.129 17.8371C17.728 16.2021 19 14.1631 19 11.8411C19 9.98455 18.2625 8.20407 16.9497 6.89132C15.637 5.57856 13.8565 4.84106 12 4.84106ZM12 7.84106C13.0609 7.84106 14.0783 8.26249 14.8284 9.01264C15.5786 9.76278 16 10.7802 16 11.8411C16 12.9019 15.5786 13.9193 14.8284 14.6695C14.0783 15.4196 13.0609 15.8411 12 15.8411C10.9391 15.8411 9.92172 15.4196 9.17157 14.6695C8.42143 13.9193 8 12.9019 8 11.8411C8 10.7802 8.42143 9.76278 9.17157 9.01264C9.92172 8.26249 10.9391 7.84106 12 7.84106ZM12 9.84106C11.4696 9.84106 10.9609 10.0518 10.5858 10.4269C10.2107 10.8019 10 11.3106 10 11.8411C10 12.3715 10.2107 12.8802 10.5858 13.2553C10.9609 13.6304 11.4696 13.8411 12 13.8411C12.5304 13.8411 13.0391 13.6304 13.4142 13.2553C13.7893 12.8802 14 12.3715 14 11.8411C14 11.3106 13.7893 10.8019 13.4142 10.4269C13.0391 10.0518 12.5304 9.84106 12 9.84106Z" fill="#333333"/>
</svg>
