<svg width="24" height="25" viewBox="0 0 24 25" fill="none" xmlns="http://www.w3.org/2000/svg">
<path d="M3 22.8411V12.8411C3 10.9551 3 10.0131 3.586 9.42706C4.172 8.84106 5.114 8.84106 7 8.84106C8.886 8.84106 9.828 8.84106 10.414 9.42706C11 10.0131 11 10.9551 11 12.8411" stroke="#333333" stroke-width="1.5"/>
<path d="M17 22.8411V16.8411C17 14.9551 17 14.0131 16.414 13.4271C15.828 12.8411 14.886 12.8411 13 12.8411H11C9.114 12.8411 8.172 12.8411 7.586 13.4271C7 14.0131 7 14.9551 7 16.8411V22.8411" stroke="#333333" stroke-width="1.5"/>
<path d="M21 22.8411V8.61305C21 7.27305 21 6.60205 20.644 6.08805C20.288 5.57405 19.66 5.33805 18.404 4.86805C15.949 3.94705 14.722 3.48705 13.861 4.08305C13 4.68105 13 5.99105 13 8.61305V12.8411" stroke="#333333" stroke-width="1.5"/>
<path d="M4 8.84106V7.34106C4 6.39806 4 5.92706 4.293 5.63406C4.586 5.34106 5.057 5.34106 6 5.34106H8C8.943 5.34106 9.414 5.34106 9.707 5.63406C10 5.92706 10 6.39806 10 7.34106V8.84106M7 4.84106V2.84106M22 22.8411H2M10 15.8411H14M10 18.8411H14" stroke="#333333" stroke-width="1.5" stroke-linecap="round"/>
</svg>
