<svg width="24" height="25" viewBox="0 0 24 25" fill="none" xmlns="http://www.w3.org/2000/svg">
<path d="M12 2.7757C17.523 2.7757 22 7.2527 22 12.7757C22 18.2987 17.523 22.7757 12 22.7757C6.477 22.7757 2 18.2987 2 12.7757C2 7.2527 6.477 2.7757 12 2.7757ZM12 4.7757C9.87827 4.7757 7.84344 5.61855 6.34315 7.11884C4.84285 8.61913 4 10.654 4 12.7757C4 14.8974 4.84285 16.9323 6.34315 18.4326C7.84344 19.9328 9.87827 20.7757 12 20.7757C14.1217 20.7757 16.1566 19.9328 17.6569 18.4326C19.1571 16.9323 20 14.8974 20 12.7757C20 10.654 19.1571 8.61913 17.6569 7.11884C16.1566 5.61855 14.1217 4.7757 12 4.7757ZM12 6.7757C12.2449 6.77573 12.4813 6.86565 12.6644 7.02841C12.8474 7.19117 12.9643 7.41544 12.993 7.6587L13 7.7757V12.3617L15.707 15.0687C15.8863 15.2487 15.9905 15.4901 15.9982 15.7441C16.006 15.998 15.9168 16.2454 15.7488 16.436C15.5807 16.6265 15.3464 16.746 15.0935 16.7701C14.8406 16.7942 14.588 16.7211 14.387 16.5657L14.293 16.4827L11.293 13.4827C11.1376 13.3271 11.0378 13.1247 11.009 12.9067L11 12.7757V7.7757C11 7.51048 11.1054 7.25613 11.2929 7.06859C11.4804 6.88105 11.7348 6.7757 12 6.7757Z" fill="#202224"/>
</svg>
