<svg width="24" height="24" viewBox="0 0 24 24" fill="none" xmlns="http://www.w3.org/2000/svg">
<path d="M8.625 4.5C7.92966 4.50276 7.26358 4.78021 6.7719 5.2719C6.28021 5.76358 6.00276 6.42966 6 7.125C6 8.5665 7.1835 9.75 8.625 9.75C10.0665 9.75 11.25 8.5665 11.25 7.125C11.25 5.6835 10.0665 4.5 8.625 4.5ZM15.375 4.5C14.6797 4.50276 14.0136 4.78021 13.5219 5.2719C13.0302 5.76358 12.7528 6.42966 12.75 7.125C12.75 8.5665 13.9335 9.75 15.375 9.75C16.8165 9.75 18 8.5665 18 7.125C18 5.6835 16.8165 4.5 15.375 4.5ZM8.625 6C9.255 6 9.75 6.495 9.75 7.125C9.75 7.755 9.255 8.25 8.625 8.25C7.995 8.25 7.5 7.755 7.5 7.125C7.5 6.495 7.995 6 8.625 6ZM15.375 6C16.005 6 16.5 6.495 16.5 7.125C16.5 7.755 16.005 8.25 15.375 8.25C14.745 8.25 14.25 7.755 14.25 7.125C14.25 6.495 14.745 6 15.375 6ZM5.25 9C3.6 9 2.25 10.35 2.25 12C2.25 12.8348 2.60775 13.5877 3.16425 14.133C2.65393 14.4777 2.23555 14.9418 1.9455 15.4851C1.65545 16.0283 1.50251 16.6342 1.5 17.25H3C3 15.999 3.999 15 5.25 15C6.501 15 7.5 15.999 7.5 17.25H9C8.99749 16.6342 8.84455 16.0283 8.5545 15.4851C8.26445 14.9418 7.84607 14.4777 7.33575 14.133C7.89225 13.5877 8.25 12.8355 8.25 12C8.25 10.35 6.9 9 5.25 9ZM9 17.25C8.53125 17.877 8.25 18.6652 8.25 19.5H9.75C9.75 18.249 10.749 17.25 12 17.25C13.251 17.25 14.25 18.249 14.25 19.5H15.75C15.7489 18.6888 15.4859 17.8996 15 17.25C14.745 16.9102 14.4375 16.62 14.0858 16.383C14.6423 15.8377 15 15.0855 15 14.25C15 12.6 13.65 11.25 12 11.25C10.35 11.25 9 12.6 9 14.25C9 15.0848 9.35775 15.8377 9.91425 16.383C9.56278 16.6184 9.25367 16.9115 9 17.25ZM15 17.25H16.5C16.5 15.999 17.499 15 18.75 15C20.001 15 21 15.999 21 17.25H22.5C22.4975 16.6342 22.3446 16.0283 22.0545 15.4851C21.7645 14.9418 21.3461 14.4777 20.8358 14.133C21.3923 13.5877 21.75 12.8355 21.75 12C21.75 10.35 20.4 9 18.75 9C17.1 9 15.75 10.35 15.75 12C15.75 12.8348 16.1077 13.5877 16.6642 14.133C16.1539 14.4777 15.7355 14.9418 15.4455 15.4851C15.1554 16.0283 15.0025 16.6342 15 17.25ZM5.25 10.5C6.08775 10.5 6.75 11.1623 6.75 12C6.75 12.8378 6.08775 13.5 5.25 13.5C4.41225 13.5 3.75 12.8378 3.75 12C3.75 11.1623 4.41225 10.5 5.25 10.5ZM18.75 10.5C19.5877 10.5 20.25 11.1623 20.25 12C20.25 12.8378 19.5877 13.5 18.75 13.5C17.9123 13.5 17.25 12.8378 17.25 12C17.25 11.1623 17.9123 10.5 18.75 10.5ZM12 12.75C12.8378 12.75 13.5 13.4122 13.5 14.25C13.5 15.0878 12.8378 15.75 12 15.75C11.1622 15.75 10.5 15.0878 10.5 14.25C10.5 13.4122 11.1622 12.75 12 12.75Z" fill="#202224"/>
</svg>
