<svg width="116" height="65" viewBox="0 0 116 65" fill="none" xmlns="http://www.w3.org/2000/svg">
<g clip-path="url(#clip0_151_3581)">
<path d="M15.3338 39.7533H20.4211V40.7404H14.2233V29.8159H15.3338V39.7533Z" fill="#231F20"/>
<path d="M25.7397 41.0185C24.9173 41.0185 24.244 40.8766 23.7199 40.5946C23.1957 40.3117 22.7794 39.9546 22.4712 39.5224C22.1629 39.0902 21.9497 38.6196 21.8317 38.1105C21.7137 37.6014 21.6542 37.1207 21.6542 36.6674V29.8167H22.7639V36.5438C22.7639 36.9861 22.8151 37.4155 22.9185 37.8321C23.021 38.2487 23.1884 38.6186 23.4198 38.9428C23.6513 39.2669 23.9568 39.5288 24.3374 39.7293C24.7179 39.9298 25.1854 40.0306 25.7397 40.0306C26.2941 40.0306 26.7625 39.9298 27.1431 39.7293C27.5227 39.5288 27.8292 39.266 28.0606 38.9428C28.2921 38.6186 28.4585 38.2487 28.5619 37.8321C28.6644 37.4155 28.7165 36.9861 28.7165 36.5438V29.8167H29.8262V36.6674C29.8262 37.1198 29.7667 37.6014 29.6487 38.1105C29.5307 38.6196 29.3176 39.0902 29.0093 39.5224C28.701 39.9546 28.282 40.3117 27.7532 40.5946C27.2236 40.8775 26.553 41.0185 25.7416 41.0185H25.7397Z" fill="#231F20"/>
<path d="M36.2371 34.2293L46.1691 22.7344H47.4956L36.9159 35.0158L40.9236 40.7403H39.5368L36.2069 35.8188L32.8926 40.7403H31.5048L35.5126 35.0002L31.8589 29.8159H33.2466L36.2371 34.2293Z" fill="#231F20"/>
<path d="M58.852 38.8578H58.8675L62.5213 29.8159H64.2173V40.7404H63.1067V31.2516H63.0766L59.1301 40.7404H58.5437L54.5972 31.2516H54.5671V40.7404H53.4565V29.8159H55.1525L58.852 38.8578Z" fill="#231F20"/>
<path d="M47.1672 29.8159H46.0878L41.371 40.7404H42.5886L43.7761 37.8708L44.1923 36.8526L46.5964 31.0502L49.0014 36.8526L49.4176 37.8708L50.6206 40.7404H51.8538L47.1672 29.8159Z" fill="#231F20"/>
<path d="M75.2928 24.8511H79.5467L94.78 3.56445L75.2928 24.8511Z" fill="#11B8C5"/>
<path d="M84.74 24.9007H88.8941L106.849 0L84.74 24.9007Z" fill="#11B8C5"/>
<path d="M88.8942 47.2275H92.8022L106.997 64.3563L88.8942 47.2275Z" fill="#FAA61A"/>
<path d="M46.1655 19.9983L45.1491 20.6136C40.8322 14.1254 33.458 9.8503 25.0866 9.8503C11.7835 9.8503 0.999794 20.6447 0.999794 33.959C0.999794 47.2732 11.7844 58.0676 25.0866 58.0676C27.6572 58.0676 30.1336 57.6647 32.4562 56.9176L29.5444 51.8047L40.1534 53.1415L35.7395 62.6833L33.0564 57.9715C30.5507 58.8047 27.8712 59.2552 25.0866 59.2552C11.1276 59.2552 -0.187622 47.9297 -0.187622 33.958C-0.187622 19.9864 11.1276 8.66089 25.0866 8.66089C33.8888 8.66089 41.6409 13.1649 46.1664 19.9964L46.1655 19.9983Z" fill="#231F20"/>
<path d="M97.3524 47.2769H101.656L115.9 64.9999L97.3524 47.2769Z" fill="#FAA61A"/>
<path d="M70.3163 35.2914V35.2612C70.3163 32.3586 72.2465 29.8159 75.0824 29.8159C77.9183 29.8159 79.822 32.3275 79.822 35.231V35.2612C79.822 38.1638 77.8918 40.7065 75.0559 40.7065C72.22 40.7065 70.3163 38.1949 70.3163 35.2914ZM78.7297 35.2914V35.2612C78.7297 32.8696 77.1856 30.9147 75.0559 30.9147C72.9262 30.9147 71.4086 32.8403 71.4086 35.2319V35.2621C71.4086 37.6538 72.9528 39.6095 75.0824 39.6095C77.2121 39.6095 78.7297 37.684 78.7297 35.2923V35.2914Z" fill="#231F20"/>
<path d="M82.1374 29.9963H83.1894V40.5252H82.1374V29.9963Z" fill="#231F20"/>
<path d="M85.9174 29.9963H86.9694V39.4274H92.2149V40.5252H85.9183V29.9963H85.9174Z" fill="#231F20"/>
<path d="M99.6778 37.6712C99.6778 39.4997 98.2837 40.7285 96.2107 40.7285C95.6134 40.7285 94.0875 40.6103 92.8278 39.518L92.7802 39.4768L93.4444 38.5941C94.619 39.5116 95.8979 39.5894 96.2967 39.5894C97.6826 39.5894 98.6139 38.8725 98.6139 37.8058C98.6139 36.49 97.4503 36.1659 96.1028 35.7914C95.9527 35.7492 95.8009 35.7071 95.649 35.6623C94.2631 35.2585 92.8662 34.6789 92.8662 32.7405C92.8662 30.9385 94.2348 29.728 96.272 29.728C97.3762 29.728 98.4685 30.0979 99.2689 30.7416L99.3192 30.7828L98.6432 31.682C97.9644 31.1647 97.0999 30.8671 96.2354 30.8671C94.8568 30.8671 93.9301 31.5776 93.9301 32.6361C93.9301 33.9152 95.0819 34.233 96.4156 34.601C96.4248 34.6038 96.433 34.6056 96.4422 34.6084C97.9644 35.0277 99.6778 35.5139 99.6778 37.6712Z" fill="#231F20"/>
</g>
<defs>
<clipPath id="clip0_151_3581">
<rect width="116" height="65" fill="white"/>
</clipPath>
</defs>
</svg>
