<svg width="24" height="25" viewBox="0 0 24 25" fill="none" xmlns="http://www.w3.org/2000/svg">
<path d="M13 2.46729V12.4673H11V2.46729H13ZM16.78 4.19529L17.589 4.78429C19.2108 5.96425 20.4176 7.62725 21.0365 9.53507C21.6553 11.4429 21.6545 13.4976 21.0341 15.4049C20.4137 17.3122 19.2055 18.9742 17.5827 20.1529C15.9599 21.3315 14.0057 21.9663 12 21.9663C9.99433 21.9663 8.04012 21.3315 6.4173 20.1529C4.79449 18.9742 3.58634 17.3122 2.96593 15.4049C2.34551 13.4976 2.34467 11.4429 2.96352 9.53507C3.58237 7.62725 4.78915 5.96425 6.411 4.78429L7.219 4.19429L8.397 5.81129L7.589 6.40129C6.30827 7.33263 5.35519 8.64547 4.86633 10.1517C4.37747 11.6579 4.3779 13.2802 4.86758 14.7862C5.35725 16.2921 6.31103 17.6045 7.59226 18.5351C8.8735 19.4658 10.4164 19.967 12 19.967C13.5836 19.967 15.1265 19.4658 16.4077 18.5351C17.689 17.6045 18.6428 16.2921 19.1324 14.7862C19.6221 13.2802 19.6225 11.6579 19.1337 10.1517C18.6448 8.64547 17.6917 7.33263 16.411 6.40129L15.603 5.81129L16.78 4.19529Z" fill="#D62B2B"/>
</svg>
