<svg width="24" height="25" viewBox="0 0 24 25" fill="none" xmlns="http://www.w3.org/2000/svg">
<path d="M16.839 4.7757H7.16C6.633 4.7757 6.179 4.7757 5.804 4.8057C5.409 4.8387 5.015 4.9097 4.637 5.1027C4.07254 5.39031 3.61362 5.84924 3.326 6.4137C3.23791 6.60483 3.18053 6.80868 3.156 7.0177C3.13 7.1917 3.11 7.3977 3.094 7.6147C3.061 8.0507 3.04 8.5897 3.027 9.1367C3 10.2327 3 11.4127 3 11.9727V11.9757C3 12.2409 3.10536 12.4953 3.29289 12.6828C3.48043 12.8703 3.73478 12.9757 4 12.9757C4.26522 12.9757 4.51957 12.8703 4.70711 12.6828C4.89464 12.4953 5 12.2409 5 11.9757C5 11.6957 5 11.2677 5.003 10.7757H19V15.5757C19 16.1527 19 16.5247 18.976 16.8077C18.954 17.0797 18.916 17.1797 18.891 17.2297C18.7951 17.4179 18.6422 17.5708 18.454 17.6667C18.404 17.6917 18.304 17.7297 18.032 17.7517C17.75 17.7757 17.377 17.7757 16.8 17.7757H12C11.7348 17.7757 11.4804 17.8811 11.2929 18.0686C11.1054 18.2561 11 18.5105 11 18.7757C11 19.0409 11.1054 19.2953 11.2929 19.4828C11.4804 19.6703 11.7348 19.7757 12 19.7757H16.839C17.366 19.7757 17.821 19.7757 18.195 19.7457C18.59 19.7127 18.984 19.6417 19.362 19.4487C19.9265 19.1611 20.3854 18.7022 20.673 18.1377C20.866 17.7597 20.937 17.3657 20.969 16.9707C21 16.5957 21 16.1407 21 15.6147V8.9357C21 8.4087 21 7.9547 20.97 7.5797C20.937 7.1847 20.866 6.7907 20.673 6.4127C20.3854 5.84824 19.9265 5.38931 19.362 5.1017C18.984 4.9087 18.59 4.8377 18.195 4.8057C17.7432 4.77864 17.2905 4.76863 16.838 4.7757M18.998 8.7757H5.04C5.052 8.3967 5.069 8.0487 5.09 7.7627C5.10227 7.59442 5.12061 7.42665 5.145 7.2597C5.24133 7.0996 5.3806 6.96969 5.547 6.8847C5.597 6.8597 5.697 6.8217 5.969 6.7997C6.25 6.7757 6.623 6.7757 7.2 6.7757H16.8C17.377 6.7757 17.749 6.7757 18.032 6.7997C18.304 6.8217 18.404 6.8597 18.454 6.8847C18.6422 6.98057 18.7951 7.13354 18.891 7.3217C18.916 7.3717 18.954 7.4717 18.976 7.7437C18.996 7.9927 19 8.3107 19 8.7757" fill="#202224"/>
<path d="M9.31399 16.6527L8.59399 17.3527C9.04599 18.2057 8.90399 19.2777 8.16499 19.9937L7.01699 21.1077C6.56857 21.5362 5.97222 21.7753 5.35199 21.7753C4.73176 21.7753 4.1354 21.5362 3.68699 21.1077C3.47008 20.9004 3.29744 20.6513 3.17949 20.3755C3.06154 20.0996 3.00073 19.8027 3.00073 19.5027C3.00073 19.2027 3.06154 18.9058 3.17949 18.6299C3.29744 18.3541 3.47008 18.105 3.68699 17.8977L4.40699 17.1997C4.18121 16.7727 4.10084 16.2837 4.17808 15.8069C4.25532 15.3302 4.48595 14.8916 4.83499 14.5577L5.98299 13.4437C6.4314 13.0152 7.02775 12.7761 7.64799 12.7761C8.26822 12.7761 8.86457 13.0152 9.31299 13.4437C9.52989 13.651 9.70253 13.9001 9.82048 14.1759C9.93843 14.4518 9.99924 14.7487 9.99924 15.0487C9.99924 15.3487 9.93843 15.6456 9.82048 15.9215C9.70253 16.1973 9.52989 16.4464 9.31299 16.6537M8.66199 16.0437C8.79605 15.9152 8.90273 15.7609 8.9756 15.59C9.04848 15.4192 9.08605 15.2354 9.08605 15.0497C9.08605 14.864 9.04848 14.6802 8.9756 14.5094C8.90273 14.3385 8.79605 14.1842 8.66199 14.0557C8.38917 13.7938 8.02565 13.6476 7.64749 13.6476C7.26932 13.6476 6.90581 13.7938 6.63299 14.0557L5.48399 15.1697C5.30225 15.3445 5.17187 15.5657 5.10699 15.8093C5.04212 16.0529 5.04523 16.3097 5.11599 16.5517C5.54715 16.2519 6.06412 16.1005 6.58888 16.1204C7.11363 16.1402 7.61769 16.3302 8.02499 16.6617L8.66199 16.0437ZM7.37399 17.2757C7.12099 17.0886 6.81464 16.9877 6.49999 16.9877C6.18533 16.9877 5.87898 17.0886 5.62599 17.2757C5.87898 17.4628 6.18533 17.5637 6.49999 17.5637C6.81464 17.5637 7.12099 17.4628 7.37399 17.2757ZM4.33699 18.5087C4.20292 18.6372 4.09625 18.7915 4.02337 18.9624C3.95049 19.1332 3.91293 19.317 3.91293 19.5027C3.91293 19.6884 3.95049 19.8722 4.02337 20.043C4.09625 20.2139 4.20292 20.3682 4.33699 20.4967C4.60981 20.7586 4.97332 20.9048 5.35149 20.9048C5.72965 20.9048 6.09317 20.7586 6.36599 20.4967L7.51499 19.3827C7.89999 19.0097 8.02299 18.4767 7.88299 18.0007C7.45182 18.3005 6.93485 18.4518 6.4101 18.432C5.88534 18.4122 5.38128 18.2222 4.97399 17.8907L4.33699 18.5087ZM14 13.7757C13.7348 13.7757 13.4804 13.881 13.2929 14.0686C13.1053 14.2561 13 14.5105 13 14.7757C13 15.0409 13.1053 15.2953 13.2929 15.4828C13.4804 15.6703 13.7348 15.7757 14 15.7757H17C17.2652 15.7757 17.5196 15.6703 17.7071 15.4828C17.8946 15.2953 18 15.0409 18 14.7757C18 14.5105 17.8946 14.2561 17.7071 14.0686C17.5196 13.881 17.2652 13.7757 17 13.7757H14Z" fill="#202224"/>
</svg>
