<svg width="24" height="25" viewBox="0 0 24 25" fill="none" xmlns="http://www.w3.org/2000/svg">
<g clip-path="url(#clip0_225_11384)">
<path d="M14.4802 3.24863C14.3641 2.7475 14.0747 2.3035 13.663 1.99497C13.2514 1.68644 12.7441 1.53322 12.2305 1.56234C11.7169 1.59146 11.2301 1.80105 10.856 2.15412C10.4819 2.5072 10.2446 2.98107 10.1858 3.49211C10.1271 4.00315 10.2507 4.51851 10.535 4.94726C10.8192 5.37601 11.2457 5.69059 11.7393 5.83548C12.2329 5.98037 12.7618 5.94626 13.2327 5.73917C13.7035 5.53209 14.0861 5.16533 14.3129 4.70363C15.6937 5.01804 16.9772 5.66359 18.0528 6.58462C19.1284 7.50565 19.9638 8.67451 20.4869 9.99038L21.8182 9.46688C21.2019 7.90612 20.2096 6.5218 18.9295 5.43698C17.6493 4.35215 16.1209 3.60042 14.4802 3.24863ZM12.3637 4.47713C12.2662 4.48026 12.1691 4.46376 12.0782 4.42863C11.9872 4.3935 11.9043 4.34044 11.8342 4.27261C11.7642 4.20478 11.7085 4.12357 11.6705 4.03379C11.6324 3.94401 11.6128 3.8475 11.6128 3.75C11.6128 3.6525 11.6324 3.55599 11.6705 3.46621C11.7085 3.37643 11.7642 3.29522 11.8342 3.22739C11.9043 3.15956 11.9872 3.1065 12.0782 3.07137C12.1691 3.03624 12.2662 3.01975 12.3637 3.02288C12.5566 3.02288 12.7417 3.09952 12.8781 3.23596C13.0145 3.37239 13.0912 3.55743 13.0912 3.75038C13.0912 3.94332 13.0145 4.12836 12.8781 4.2648C12.7417 4.40123 12.5566 4.47713 12.3637 4.47713ZM9.16344 5.08163L8.62569 3.75113C7.06494 4.36737 5.68062 5.35968 4.59579 6.63986C3.51096 7.92003 2.75924 9.44841 2.40744 11.0891C1.90631 11.2053 1.46231 11.4947 1.15379 11.9063C0.845258 12.3179 0.692034 12.8252 0.721153 13.3388C0.750272 13.8524 0.959861 14.3392 1.31294 14.7133C1.66601 15.0874 2.13988 15.3248 2.65092 15.3835C3.16196 15.4422 3.67733 15.3186 4.10608 15.0344C4.53482 14.7501 4.8494 14.3236 4.99429 13.83C5.13918 13.3364 5.10507 12.8075 4.89799 12.3367C4.6909 11.8658 4.32414 11.4832 3.86244 11.2564C4.17814 9.87403 4.8258 8.58939 5.74943 7.51353C6.67305 6.43767 7.84483 5.60298 9.16344 5.08163ZM2.90844 13.9331C2.8129 13.9331 2.7183 13.9143 2.63004 13.8777C2.54177 13.8412 2.46157 13.7876 2.39402 13.72C2.32646 13.6525 2.27288 13.5723 2.23632 13.484C2.19976 13.3958 2.18094 13.3012 2.18094 13.2056C2.18094 13.1101 2.19976 13.0155 2.23632 12.9272C2.27288 12.839 2.32646 12.7588 2.39402 12.6912C2.46157 12.6237 2.54177 12.5701 2.63004 12.5335C2.7183 12.4969 2.8129 12.4781 2.90844 12.4781C3.10138 12.4781 3.28643 12.5548 3.42286 12.6912C3.55929 12.8276 3.63594 13.0127 3.63594 13.2056C3.63594 13.3986 3.55929 13.5836 3.42286 13.72C3.28643 13.8565 3.10138 13.9331 2.90844 13.9331ZM12.3637 20.4784C11.958 20.4797 11.5606 20.5941 11.2163 20.8087C10.872 21.0233 10.5943 21.3297 10.4144 21.6934C9.03351 21.379 7.7498 20.7334 6.67406 19.8122C5.59831 18.891 4.76283 17.722 4.23969 16.4059L2.90919 16.9436C3.52744 18.507 4.52307 19.893 5.80727 20.9781C7.09146 22.0631 8.62427 22.8133 10.2689 23.1619C10.3634 23.5623 10.5691 23.9278 10.8624 24.2164C11.1556 24.5049 11.5244 24.7047 11.9263 24.7927C12.3282 24.8807 12.7468 24.8533 13.1337 24.7137C13.5207 24.5741 13.8604 24.3279 14.1135 24.0036C14.3667 23.6793 14.523 23.2901 14.5645 22.8808C14.606 22.4715 14.5309 22.0588 14.348 21.6903C14.1651 21.3218 13.8818 21.0125 13.5307 20.7981C13.1796 20.5837 12.775 20.4728 12.3637 20.4784ZM12.3637 23.3876C12.1707 23.3876 11.9857 23.311 11.8493 23.1745C11.7128 23.0381 11.6362 22.8531 11.6362 22.6601C11.6362 22.4672 11.7128 22.2821 11.8493 22.1457C11.9857 22.0093 12.1707 21.9326 12.3637 21.9326C12.5566 21.9326 12.7417 22.0093 12.8781 22.1457C13.0145 22.2821 13.0912 22.4672 13.0912 22.6601C13.0912 22.8531 13.0145 23.0381 12.8781 23.1745C12.7417 23.311 12.5566 23.3876 12.3637 23.3876ZM23.9999 13.2049C24.0013 12.8155 23.8984 12.4328 23.702 12.0965C23.5055 11.7603 23.2227 11.4827 22.8829 11.2926C22.543 11.1025 22.1585 11.0068 21.7692 11.0155C21.3798 11.0241 20.9999 11.1367 20.6688 11.3416C20.3377 11.5466 20.0674 11.8364 19.8861 12.181C19.7047 12.5256 19.6189 12.9125 19.6374 13.3014C19.656 13.6904 19.7783 14.0673 19.9916 14.3931C20.205 14.7189 20.5016 14.9816 20.8507 15.1541C20.5362 16.5349 19.8905 17.8185 18.9694 18.8941C18.0482 19.9697 16.8792 20.8051 15.5632 21.3281L16.1017 22.6594C17.6651 22.0411 19.0511 21.0455 20.1361 19.7613C21.2211 18.4771 21.9714 16.9443 22.3199 15.2996C22.7934 15.1877 23.2158 14.9207 23.5202 14.5412C23.8246 14.1617 23.9934 13.6913 23.9999 13.2049ZM21.8174 13.9324C21.6245 13.9324 21.4395 13.8557 21.303 13.7193C21.1666 13.5829 21.0899 13.3978 21.0899 13.2049C21.0899 13.0119 21.1666 12.8269 21.303 12.6905C21.4395 12.554 21.6245 12.4774 21.8174 12.4774C22.0104 12.4774 22.1954 12.554 22.3319 12.6905C22.4683 12.8269 22.5449 13.0119 22.5449 13.2049C22.5449 13.3978 22.4683 13.5829 22.3319 13.7193C22.1954 13.8557 22.0104 13.9324 21.8174 13.9324Z" fill="#333333"/>
<path d="M14.3925 13.1036C14.8063 12.6995 15.0903 12.1813 15.2082 11.6151C15.326 11.0489 15.2725 10.4604 15.0544 9.92475C14.8362 9.38912 14.4634 8.93066 13.9835 8.60791C13.5036 8.28517 12.9383 8.11279 12.36 8.11279C11.7816 8.11279 11.2164 8.28517 10.7365 8.60791C10.2566 8.93066 9.88375 9.38912 9.66561 9.92475C9.44747 10.4604 9.39393 11.0489 9.51182 11.6151C9.62972 12.1813 9.91369 12.6995 10.3275 13.1036C9.83506 13.4364 9.43169 13.8849 9.15267 14.4097C8.87366 14.9345 8.7275 15.5197 8.72699 16.1141V17.5683H15.9997V16.1133C15.9985 15.5183 15.8513 14.9327 15.5711 14.4079C15.2909 13.883 14.8862 13.4356 14.3925 13.1036ZM10.9087 11.0223C10.9087 10.8312 10.9464 10.642 11.0195 10.4655C11.0926 10.289 11.1998 10.1286 11.3349 9.99346C11.47 9.85835 11.6304 9.75118 11.8069 9.67806C11.9835 9.60494 12.1727 9.5673 12.3637 9.5673C12.5548 9.5673 12.744 9.60494 12.9205 9.67806C13.0971 9.75118 13.2575 9.85835 13.3926 9.99346C13.5277 10.1286 13.6349 10.289 13.708 10.4655C13.7811 10.642 13.8187 10.8312 13.8187 11.0223C13.8187 11.4082 13.6654 11.7783 13.3926 12.0511C13.1197 12.324 12.7496 12.4773 12.3637 12.4773C11.9779 12.4773 11.6078 12.324 11.3349 12.0511C11.062 11.7783 10.9087 11.4082 10.9087 11.0223ZM10.1812 16.1133C10.1759 15.8233 10.2283 15.5352 10.3356 15.2658C10.4428 14.9963 10.6027 14.7509 10.8059 14.544C11.009 14.337 11.2514 14.1726 11.5188 14.0604C11.7862 13.9481 12.0734 13.8903 12.3634 13.8903C12.6534 13.8903 12.9405 13.9481 13.2079 14.0604C13.4753 14.1726 13.7177 14.337 13.9209 14.544C14.124 14.7509 14.2839 14.9963 14.3911 15.2658C14.4984 15.5352 14.5509 15.8233 14.5455 16.1133H10.1812Z" fill="#333333"/>
</g>
<defs>
<clipPath id="clip0_225_11384">
<rect width="24" height="24" fill="white" transform="translate(0 0.841064)"/>
</clipPath>
</defs>
</svg>
