<svg width="24" height="25" viewBox="0 0 24 25" fill="none" xmlns="http://www.w3.org/2000/svg">
<path d="M8 10.7757H16M8 18.7757H16M8 14.7757H12M4 22.1757V3.3757C4 3.21657 4.06321 3.06395 4.17574 2.95143C4.28826 2.83891 4.44087 2.7757 4.6 2.7757H16.252C16.4111 2.77584 16.5636 2.83914 16.676 2.9517L19.824 6.0997C19.88 6.1556 19.9243 6.22201 19.9545 6.29512C19.9847 6.36823 20.0002 6.44659 20 6.5257V22.1757C20 22.2545 19.9845 22.3325 19.9543 22.4053C19.9242 22.4781 19.88 22.5442 19.8243 22.6C19.7685 22.6557 19.7024 22.6999 19.6296 22.73C19.5568 22.7602 19.4788 22.7757 19.4 22.7757H4.6C4.52121 22.7757 4.44319 22.7602 4.37039 22.73C4.29759 22.6999 4.23145 22.6557 4.17574 22.6C4.12002 22.5442 4.07583 22.4781 4.04567 22.4053C4.01552 22.3325 4 22.2545 4 22.1757Z" stroke="#333333" stroke-width="1.5" stroke-linecap="round" stroke-linejoin="round"/>
<path d="M16 2.7757V6.1757C16 6.33483 16.0632 6.48744 16.1757 6.59996C16.2883 6.71248 16.4409 6.7757 16.6 6.7757H20" stroke="#333333" stroke-width="1.5" stroke-linecap="round" stroke-linejoin="round"/>
</svg>
