<svg width="24" height="25" viewBox="0 0 24 25" fill="none" xmlns="http://www.w3.org/2000/svg">
<path d="M1.80005 10.2341V5.7173C1.80017 5.4945 1.86231 5.27614 1.97951 5.08667C2.09671 4.89719 2.26435 4.74409 2.46365 4.6445L6.06365 2.8445C6.23021 2.76127 6.41385 2.71794 6.60005 2.71794C6.78625 2.71794 6.96989 2.76127 7.13645 2.8445L10.7364 4.6445C10.9357 4.74409 11.1034 4.89719 11.2206 5.08667C11.3378 5.27614 11.3999 5.4945 11.4 5.7173V10.2341C11.4002 10.4571 11.3381 10.6757 11.2209 10.8654C11.1037 11.0551 10.9359 11.2084 10.7364 11.3081L7.13645 13.1081C6.96989 13.1913 6.78625 13.2347 6.60005 13.2347C6.41385 13.2347 6.23021 13.1913 6.06365 13.1081L2.46365 11.3081C2.26417 11.2084 2.09641 11.0551 1.9792 10.8654C1.86198 10.6757 1.79995 10.4571 1.80005 10.2341ZM3.04805 5.9429C2.98618 6.08946 2.98506 6.25459 3.04491 6.40198C3.10477 6.54938 3.22071 6.66697 3.36725 6.7289L6.00005 7.8401V10.9757C6.00005 11.1348 6.06326 11.2874 6.17579 11.4C6.28831 11.5125 6.44092 11.5757 6.60005 11.5757C6.75918 11.5757 6.91179 11.5125 7.02431 11.4C7.13683 11.2874 7.20005 11.1348 7.20005 10.9757V7.8401L9.83285 6.7289C9.97613 6.66482 10.0886 6.54714 10.1461 6.40111C10.2037 6.25508 10.2017 6.09232 10.1406 5.94773C10.0795 5.80314 9.96424 5.68824 9.81944 5.62767C9.67465 5.56709 9.51188 5.56567 9.36605 5.6237L6.60005 6.7913L3.83285 5.6237C3.68629 5.56183 3.52115 5.5607 3.37376 5.62056C3.22637 5.68042 3.10998 5.79636 3.04805 5.9429ZM2.44925 17.8757V12.6437L3.64925 13.2437V17.8757C3.64925 18.3737 4.05245 18.7757 4.54925 18.7757H4.86005C4.99776 18.0975 5.36569 17.4878 5.90149 17.0499C6.4373 16.6119 7.10804 16.3727 7.80005 16.3727C8.49206 16.3727 9.1628 16.6119 9.6986 17.0499C10.2344 17.4878 10.6023 18.0975 10.74 18.7757H12.06C12.1388 18.3896 12.2928 18.0227 12.5133 17.6962C12.7338 17.3696 13.0165 17.0896 13.3453 16.8723C13.674 16.655 14.0423 16.5046 14.4292 16.4297C14.8161 16.3548 15.214 16.3568 15.6 16.4357V6.4757C15.6 6.237 15.5052 6.00808 15.3364 5.8393C15.1677 5.67052 14.9387 5.5757 14.7 5.5757H12.5952C12.57 5.14659 12.4299 4.73216 12.1896 4.3757H14.7C15.8592 4.3757 16.8 5.3165 16.8 6.4757V7.9757H17.8572C18.1917 7.97571 18.5195 8.0689 18.804 8.24483C19.0884 8.42076 19.3183 8.67246 19.4676 8.9717L21.4092 12.8537C21.534 13.1045 21.6 13.3793 21.6 13.6589V18.1757C21.6 18.6531 21.4104 19.1109 21.0728 19.4485C20.7353 19.7861 20.2774 19.9757 19.8 19.9757H17.9401C17.8023 20.6539 17.4344 21.2636 16.8986 21.7015C16.3628 22.1395 15.6921 22.3787 15 22.3787C14.308 22.3787 13.6373 22.1395 13.1015 21.7015C12.5657 21.2636 12.1978 20.6539 12.06 19.9757H10.74C10.6023 20.6539 10.2344 21.2636 9.6986 21.7015C9.1628 22.1395 8.49206 22.3787 7.80005 22.3787C7.10804 22.3787 6.4373 22.1395 5.90149 21.7015C5.36569 21.2636 4.99776 20.6539 4.86005 19.9757H4.54925C3.99229 19.9757 3.45815 19.7544 3.06432 19.3606C2.6705 18.9668 2.44925 18.4327 2.44925 17.8757ZM17.9401 18.7757H19.8C19.9592 18.7757 20.1118 18.7125 20.2243 18.6C20.3368 18.4874 20.4 18.3348 20.4 18.1757V13.9757H16.8V16.9757C17.376 17.4077 17.7924 18.0437 17.9401 18.7757ZM20.0304 12.7757L18.396 9.5081C18.3463 9.40834 18.2698 9.32439 18.1751 9.26568C18.0803 9.20697 17.9711 9.17581 17.8596 9.1757H16.8V12.7757H20.0304ZM6.00005 19.3757C6.00005 19.8531 6.18969 20.3109 6.52726 20.6485C6.86482 20.9861 7.32266 21.1757 7.80005 21.1757C8.27744 21.1757 8.73528 20.9861 9.07284 20.6485C9.41041 20.3109 9.60005 19.8531 9.60005 19.3757C9.60005 18.8983 9.41041 18.4405 9.07284 18.1029C8.73528 17.7653 8.27744 17.5757 7.80005 17.5757C7.32266 17.5757 6.86482 17.7653 6.52726 18.1029C6.18969 18.4405 6.00005 18.8983 6.00005 19.3757ZM15 21.1757C15.4774 21.1757 15.9353 20.9861 16.2728 20.6485C16.6104 20.3109 16.8 19.8531 16.8 19.3757C16.8 18.8983 16.6104 18.4405 16.2728 18.1029C15.9353 17.7653 15.4774 17.5757 15 17.5757C14.5227 17.5757 14.0648 17.7653 13.7273 18.1029C13.3897 18.4405 13.2 18.8983 13.2 19.3757C13.2 19.8531 13.3897 20.3109 13.7273 20.6485C14.0648 20.9861 14.5227 21.1757 15 21.1757Z" fill="#202224"/>
</svg>
